{"title":"The.Comic.Strip.Complete.Collection.D8.DVDRip.x264.Iou1","uid":8569361,"size":1513691230,"categoryP":"video","categoryS":"tv_shows","magnet":"?xt=urn:btih:8a4c1519dbd6d1ed47be0ec018f04a6f5a699897&amp;dn=The.Comic.Strip.Complete.Collection.D8.DVDRip.x264.Iou1&amp;tr=udp%3A%2F%2Ftracker.openbittorrent.com%3A80&amp;tr=udp%3A%2F%2Fopen.demonii.com%3A1337&amp;tr=udp%3A%2F%2Ftracker.coppersurfer.tk%3A6969&amp;tr=udp%3A%2F%2Fexodus.desync.com%3A6969","seeders":1,"leechers":0,"uploader":"jaybee211","files":-1,"time":1371098424,"description":"Disc 8 Of 9\n\n34.Queen Of The Wild Frontier            : 720x550 30m 30s\n35.Gregory, Diary Of A Nutcase           : 720x552 38m 27s\n36.Demonella                             : 720x552 28m 00s \n                             : 720x554 29m 55s\n38.Four Men In A Car                     : 720x436 28m 39s\n39.Four Men In A Plane                   : 720x392 33m 00s\n\nNote. Video/Audio Bitrate varies slightly in all 6 clips\n\nFormat                                   : MPEG-4\nFile size                                : 1.40 GiB\nDuration                                 : 3h 08mn 36s\nOverall bit rate mode                    : Variable\nOverall bit rate                         : 1 076 Kbps\n\nVideo\nFormat settings, CABAC                   : Yes\nFormat settings, ReFrames                : 1 frame\nCodec ID                                 : avc1\nDuration                                 : 3h 08mn 36s\nBit rate mode                            : Variable\nBit rate                                 : 999 Kbps\nFrame rate mode                          : Constant\nFrame rate                               : 25.000 fps\nBit depth                                : 8 bits\nScan type                                : Progressive\nBits/(Pixel*Frame)                       : 0.100\nStream size                              : 1.302 GiB (93%)\nWriting library                          : x264 core\n\nAudio\nFormat                                   : AAC\nDuration                                 : 3h 08mn 36s\nBit rate mode                            : Variable\nBit rate                                 : 72.4 Kbps\nMaximum bit rate                         : 84.6 Kbps\nChannel(s)                               : 2 channels\nChannel positions                        : Front: L R\nSampling rate                            : 48.0 KHz\nCompression mode                         : Lossy\nStream size                              : 98 MiB (7%)\nLanguage                                 : English\nSubtitles                                : None\n\nIMDB. &lt;a href=&quot; http://www.imdb.com/title/tt0083402/&quot; rel=&quot;nofollow&quot; target=&quot;_NEW&quot;&gt; http://www.imdb.com/title/tt0083402/&lt;/a&gt;\n\nScreens. &lt;a href=&quot; http://bayimg.com/lankLaaed&quot; rel=&quot;nofollow&quot; target=&quot;_NEW&quot;&gt; http://bayimg.com/lankLaaed&lt;/a&gt;\n\n         &lt;a href=&quot; http://bayimg.com/LAnkMaaED&quot; rel=&quot;nofollow&quot; target=&quot;_NEW&quot;&gt; http://bayimg.com/LAnkMaaED&lt;/a&gt;\n\n         &lt;a href=&quot; http://bayimg.com/lANkNAaed&quot; rel=&quot;nofollow&quot; target=&quot;_NEW&quot;&gt; http://bayimg.com/lANkNAaed&lt;/a&gt;\n\n         &lt;a href=&quot; http://bayimg.com/LaNKoaaed&quot; rel=&quot;nofollow&quot; target=&quot;_NEW&quot;&gt; http://bayimg.com/LaNKoaaed&lt;/a&gt;\n\n         &lt;a href=&quot; http://bayimg.com/lanKPAAED&quot; rel=&quot;nofollow&quot; target=&quot;_NEW&quot;&gt; http://bayimg.com/lanKPAAED&lt;/a&gt;\n\n         &lt;a href=&quot; http://bayimg.com/MankAaAeD&quot; rel=&quot;nofollow&quot; target=&quot;_NEW&quot;&gt; http://bayimg.com/MankAaAeD&lt;/a&gt;    \n\nEnjoy.","torrent":{"xt":"urn:btih:8a4c1519dbd6d1ed47be0ec018f04a6f5a699897","amp;dn":"The.Comic.Strip.Complete.Collection.D8.DVDRip.x264.Iou1","amp;tr":["udp%3A%2F%2Ftracker.openbittorrent.com%3A80","udp%3A%2F%2Fopen.demonii.com%3A1337","udp%3A%2F%2Ftracker.coppersurfer.tk%3A6969","udp%3A%2F%2Fexodus.desync.com%3A6969"],"infoHash":"8a4c1519dbd6d1ed47be0ec018f04a6f5a699897","infoHashBuffer":{"type":"Buffer","data":[138,76,21,25,219,214,209,237,71,190,14,192,24,240,74,111,90,105,152,151]},"announce":[],"urlList":[]}}